<mxfile host="app.diagrams.net" agent="Mozilla/5.0 (Windows NT 10.0; Win64; x64) AppleWebKit/537.36 (KHTML, like Gecko) Chrome/140.0.0.0 Safari/537.36" version="28.2.3">
  <diagram name="หน้า-1" id="NITOJRkVj1MYua00EmQ4">
    <mxGraphModel dx="1004" dy="1060" grid="1" gridSize="10" guides="1" tooltips="1" connect="1" arrows="1" fold="1" page="1" pageScale="1" pageWidth="827" pageHeight="1169" math="0" shadow="0">
      <root>
        <mxCell id="0" />
        <mxCell id="1" parent="0" />
        <mxCell id="9FV7ENJVYhfaRuYf86Xj-10" value="" style="edgeStyle=orthogonalEdgeStyle;rounded=0;orthogonalLoop=1;jettySize=auto;html=1;" edge="1" parent="1" source="9FV7ENJVYhfaRuYf86Xj-1" target="9FV7ENJVYhfaRuYf86Xj-2">
          <mxGeometry relative="1" as="geometry" />
        </mxCell>
        <mxCell id="9FV7ENJVYhfaRuYf86Xj-1" value="Start" style="ellipse;whiteSpace=wrap;html=1;" vertex="1" parent="1">
          <mxGeometry x="340" width="120" height="40" as="geometry" />
        </mxCell>
        <mxCell id="9FV7ENJVYhfaRuYf86Xj-7" value="" style="edgeStyle=orthogonalEdgeStyle;rounded=0;orthogonalLoop=1;jettySize=auto;html=1;" edge="1" parent="1" source="9FV7ENJVYhfaRuYf86Xj-2" target="9FV7ENJVYhfaRuYf86Xj-3">
          <mxGeometry relative="1" as="geometry" />
        </mxCell>
        <mxCell id="9FV7ENJVYhfaRuYf86Xj-2" value="N = 0" style="rounded=0;whiteSpace=wrap;html=1;" vertex="1" parent="1">
          <mxGeometry x="340" y="80" width="120" height="40" as="geometry" />
        </mxCell>
        <mxCell id="9FV7ENJVYhfaRuYf86Xj-8" value="" style="edgeStyle=orthogonalEdgeStyle;rounded=0;orthogonalLoop=1;jettySize=auto;html=1;" edge="1" parent="1" source="9FV7ENJVYhfaRuYf86Xj-3" target="9FV7ENJVYhfaRuYf86Xj-4">
          <mxGeometry relative="1" as="geometry" />
        </mxCell>
        <mxCell id="9FV7ENJVYhfaRuYf86Xj-3" value="Show &quot;Enter N &quot;" style="shape=parallelogram;perimeter=parallelogramPerimeter;whiteSpace=wrap;html=1;fixedSize=1;" vertex="1" parent="1">
          <mxGeometry x="320" y="160" width="160" height="40" as="geometry" />
        </mxCell>
        <mxCell id="9FV7ENJVYhfaRuYf86Xj-9" value="" style="edgeStyle=orthogonalEdgeStyle;rounded=0;orthogonalLoop=1;jettySize=auto;html=1;" edge="1" parent="1" source="9FV7ENJVYhfaRuYf86Xj-4" target="9FV7ENJVYhfaRuYf86Xj-5">
          <mxGeometry relative="1" as="geometry" />
        </mxCell>
        <mxCell id="9FV7ENJVYhfaRuYf86Xj-4" value="Array[N]" style="rounded=0;whiteSpace=wrap;html=1;" vertex="1" parent="1">
          <mxGeometry x="340" y="240" width="120" height="40" as="geometry" />
        </mxCell>
        <mxCell id="9FV7ENJVYhfaRuYf86Xj-16" style="edgeStyle=orthogonalEdgeStyle;rounded=0;orthogonalLoop=1;jettySize=auto;html=1;entryX=0.5;entryY=0;entryDx=0;entryDy=0;" edge="1" parent="1" source="9FV7ENJVYhfaRuYf86Xj-5" target="9FV7ENJVYhfaRuYf86Xj-15">
          <mxGeometry relative="1" as="geometry" />
        </mxCell>
        <mxCell id="9FV7ENJVYhfaRuYf86Xj-5" value="i = 0" style="rounded=0;whiteSpace=wrap;html=1;" vertex="1" parent="1">
          <mxGeometry x="340" y="320" width="120" height="40" as="geometry" />
        </mxCell>
        <mxCell id="9FV7ENJVYhfaRuYf86Xj-12" value="" style="edgeStyle=orthogonalEdgeStyle;rounded=0;orthogonalLoop=1;jettySize=auto;html=1;" edge="1" parent="1" source="9FV7ENJVYhfaRuYf86Xj-6" target="9FV7ENJVYhfaRuYf86Xj-11">
          <mxGeometry relative="1" as="geometry" />
        </mxCell>
        <mxCell id="9FV7ENJVYhfaRuYf86Xj-20" style="edgeStyle=orthogonalEdgeStyle;rounded=0;orthogonalLoop=1;jettySize=auto;html=1;entryX=0.5;entryY=0;entryDx=0;entryDy=0;" edge="1" parent="1" source="9FV7ENJVYhfaRuYf86Xj-6" target="9FV7ENJVYhfaRuYf86Xj-21">
          <mxGeometry relative="1" as="geometry">
            <mxPoint x="520" y="800" as="targetPoint" />
            <Array as="points">
              <mxPoint x="520" y="480" />
              <mxPoint x="520" y="760" />
              <mxPoint x="400" y="760" />
            </Array>
          </mxGeometry>
        </mxCell>
        <mxCell id="9FV7ENJVYhfaRuYf86Xj-6" value="i &amp;lt; N ?" style="rhombus;whiteSpace=wrap;html=1;" vertex="1" parent="1">
          <mxGeometry x="345" y="440" width="110" height="80" as="geometry" />
        </mxCell>
        <mxCell id="9FV7ENJVYhfaRuYf86Xj-18" value="" style="edgeStyle=orthogonalEdgeStyle;rounded=0;orthogonalLoop=1;jettySize=auto;html=1;" edge="1" parent="1" source="9FV7ENJVYhfaRuYf86Xj-11" target="9FV7ENJVYhfaRuYf86Xj-14">
          <mxGeometry relative="1" as="geometry" />
        </mxCell>
        <mxCell id="9FV7ENJVYhfaRuYf86Xj-11" value="Show &quot;Enter value&quot;" style="shape=parallelogram;perimeter=parallelogramPerimeter;whiteSpace=wrap;html=1;fixedSize=1;" vertex="1" parent="1">
          <mxGeometry x="320" y="560" width="160" height="40" as="geometry" />
        </mxCell>
        <mxCell id="9FV7ENJVYhfaRuYf86Xj-19" style="edgeStyle=orthogonalEdgeStyle;rounded=0;orthogonalLoop=1;jettySize=auto;html=1;entryX=0;entryY=0.5;entryDx=0;entryDy=0;" edge="1" parent="1" source="9FV7ENJVYhfaRuYf86Xj-14" target="9FV7ENJVYhfaRuYf86Xj-15">
          <mxGeometry relative="1" as="geometry">
            <Array as="points">
              <mxPoint x="400" y="720" />
              <mxPoint x="280" y="720" />
              <mxPoint x="280" y="395" />
            </Array>
          </mxGeometry>
        </mxCell>
        <mxCell id="9FV7ENJVYhfaRuYf86Xj-14" value="i + 1" style="rounded=0;whiteSpace=wrap;html=1;" vertex="1" parent="1">
          <mxGeometry x="340" y="640" width="120" height="40" as="geometry" />
        </mxCell>
        <mxCell id="9FV7ENJVYhfaRuYf86Xj-17" style="edgeStyle=orthogonalEdgeStyle;rounded=0;orthogonalLoop=1;jettySize=auto;html=1;exitX=0.5;exitY=1;exitDx=0;exitDy=0;entryX=0.5;entryY=0;entryDx=0;entryDy=0;" edge="1" parent="1" source="9FV7ENJVYhfaRuYf86Xj-15" target="9FV7ENJVYhfaRuYf86Xj-6">
          <mxGeometry relative="1" as="geometry" />
        </mxCell>
        <mxCell id="9FV7ENJVYhfaRuYf86Xj-15" value="" style="ellipse;whiteSpace=wrap;html=1;aspect=fixed;" vertex="1" parent="1">
          <mxGeometry x="395" y="390" width="10" height="10" as="geometry" />
        </mxCell>
        <mxCell id="9FV7ENJVYhfaRuYf86Xj-23" value="" style="edgeStyle=orthogonalEdgeStyle;rounded=0;orthogonalLoop=1;jettySize=auto;html=1;" edge="1" parent="1" source="9FV7ENJVYhfaRuYf86Xj-21" target="9FV7ENJVYhfaRuYf86Xj-22">
          <mxGeometry relative="1" as="geometry" />
        </mxCell>
        <mxCell id="9FV7ENJVYhfaRuYf86Xj-21" value="Show &quot;Index&quot;" style="shape=parallelogram;perimeter=parallelogramPerimeter;whiteSpace=wrap;html=1;fixedSize=1;" vertex="1" parent="1">
          <mxGeometry x="320" y="800" width="160" height="40" as="geometry" />
        </mxCell>
        <mxCell id="9FV7ENJVYhfaRuYf86Xj-22" value="i = 0" style="rounded=0;whiteSpace=wrap;html=1;" vertex="1" parent="1">
          <mxGeometry x="340" y="880" width="120" height="40" as="geometry" />
        </mxCell>
        <mxCell id="9FV7ENJVYhfaRuYf86Xj-30" value="" style="edgeStyle=orthogonalEdgeStyle;rounded=0;orthogonalLoop=1;jettySize=auto;html=1;" edge="1" parent="1" source="9FV7ENJVYhfaRuYf86Xj-24" target="9FV7ENJVYhfaRuYf86Xj-28">
          <mxGeometry relative="1" as="geometry" />
        </mxCell>
        <mxCell id="9FV7ENJVYhfaRuYf86Xj-33" style="edgeStyle=orthogonalEdgeStyle;rounded=0;orthogonalLoop=1;jettySize=auto;html=1;entryX=0.5;entryY=0;entryDx=0;entryDy=0;" edge="1" parent="1" source="9FV7ENJVYhfaRuYf86Xj-24" target="9FV7ENJVYhfaRuYf86Xj-34">
          <mxGeometry relative="1" as="geometry">
            <mxPoint x="520" y="1320.0000000000002" as="targetPoint" />
            <Array as="points">
              <mxPoint x="520" y="1040" />
              <mxPoint x="520" y="1320" />
              <mxPoint x="400" y="1320" />
            </Array>
          </mxGeometry>
        </mxCell>
        <mxCell id="9FV7ENJVYhfaRuYf86Xj-24" value="i &amp;lt; N ?" style="rhombus;whiteSpace=wrap;html=1;" vertex="1" parent="1">
          <mxGeometry x="345" y="1000" width="110" height="80" as="geometry" />
        </mxCell>
        <mxCell id="9FV7ENJVYhfaRuYf86Xj-27" style="edgeStyle=orthogonalEdgeStyle;rounded=0;orthogonalLoop=1;jettySize=auto;html=1;entryX=0.5;entryY=0;entryDx=0;entryDy=0;" edge="1" parent="1" source="9FV7ENJVYhfaRuYf86Xj-25" target="9FV7ENJVYhfaRuYf86Xj-24">
          <mxGeometry relative="1" as="geometry" />
        </mxCell>
        <mxCell id="9FV7ENJVYhfaRuYf86Xj-25" value="" style="ellipse;whiteSpace=wrap;html=1;aspect=fixed;" vertex="1" parent="1">
          <mxGeometry x="395" y="950" width="10" height="10" as="geometry" />
        </mxCell>
        <mxCell id="9FV7ENJVYhfaRuYf86Xj-26" style="edgeStyle=orthogonalEdgeStyle;rounded=0;orthogonalLoop=1;jettySize=auto;html=1;entryX=0.5;entryY=0;entryDx=0;entryDy=0;" edge="1" parent="1" source="9FV7ENJVYhfaRuYf86Xj-22" target="9FV7ENJVYhfaRuYf86Xj-25">
          <mxGeometry relative="1" as="geometry" />
        </mxCell>
        <mxCell id="9FV7ENJVYhfaRuYf86Xj-31" value="" style="edgeStyle=orthogonalEdgeStyle;rounded=0;orthogonalLoop=1;jettySize=auto;html=1;" edge="1" parent="1" source="9FV7ENJVYhfaRuYf86Xj-28" target="9FV7ENJVYhfaRuYf86Xj-29">
          <mxGeometry relative="1" as="geometry" />
        </mxCell>
        <mxCell id="9FV7ENJVYhfaRuYf86Xj-28" value="Show &quot; i &quot;" style="shape=parallelogram;perimeter=parallelogramPerimeter;whiteSpace=wrap;html=1;fixedSize=1;" vertex="1" parent="1">
          <mxGeometry x="320" y="1120" width="160" height="40" as="geometry" />
        </mxCell>
        <mxCell id="9FV7ENJVYhfaRuYf86Xj-32" style="edgeStyle=orthogonalEdgeStyle;rounded=0;orthogonalLoop=1;jettySize=auto;html=1;entryX=0;entryY=0.5;entryDx=0;entryDy=0;" edge="1" parent="1" source="9FV7ENJVYhfaRuYf86Xj-29" target="9FV7ENJVYhfaRuYf86Xj-25">
          <mxGeometry relative="1" as="geometry">
            <Array as="points">
              <mxPoint x="400" y="1280" />
              <mxPoint x="280" y="1280" />
              <mxPoint x="280" y="955" />
            </Array>
          </mxGeometry>
        </mxCell>
        <mxCell id="9FV7ENJVYhfaRuYf86Xj-29" value="i + 1" style="rounded=0;whiteSpace=wrap;html=1;" vertex="1" parent="1">
          <mxGeometry x="340" y="1200" width="120" height="40" as="geometry" />
        </mxCell>
        <mxCell id="9FV7ENJVYhfaRuYf86Xj-36" value="" style="edgeStyle=orthogonalEdgeStyle;rounded=0;orthogonalLoop=1;jettySize=auto;html=1;" edge="1" parent="1" source="9FV7ENJVYhfaRuYf86Xj-34" target="9FV7ENJVYhfaRuYf86Xj-35">
          <mxGeometry relative="1" as="geometry" />
        </mxCell>
        <mxCell id="9FV7ENJVYhfaRuYf86Xj-34" value="Show &quot;Array&quot;" style="shape=parallelogram;perimeter=parallelogramPerimeter;whiteSpace=wrap;html=1;fixedSize=1;" vertex="1" parent="1">
          <mxGeometry x="320" y="1360" width="160" height="40" as="geometry" />
        </mxCell>
        <mxCell id="9FV7ENJVYhfaRuYf86Xj-39" style="edgeStyle=orthogonalEdgeStyle;rounded=0;orthogonalLoop=1;jettySize=auto;html=1;entryX=0.5;entryY=0;entryDx=0;entryDy=0;" edge="1" parent="1" source="9FV7ENJVYhfaRuYf86Xj-35" target="9FV7ENJVYhfaRuYf86Xj-38">
          <mxGeometry relative="1" as="geometry" />
        </mxCell>
        <mxCell id="9FV7ENJVYhfaRuYf86Xj-35" value="i = 0" style="rounded=0;whiteSpace=wrap;html=1;" vertex="1" parent="1">
          <mxGeometry x="340" y="1440" width="120" height="40" as="geometry" />
        </mxCell>
        <mxCell id="9FV7ENJVYhfaRuYf86Xj-42" value="" style="edgeStyle=orthogonalEdgeStyle;rounded=0;orthogonalLoop=1;jettySize=auto;html=1;" edge="1" parent="1" source="9FV7ENJVYhfaRuYf86Xj-37" target="9FV7ENJVYhfaRuYf86Xj-41">
          <mxGeometry relative="1" as="geometry" />
        </mxCell>
        <mxCell id="9FV7ENJVYhfaRuYf86Xj-78" style="edgeStyle=orthogonalEdgeStyle;rounded=0;orthogonalLoop=1;jettySize=auto;html=1;entryX=0.5;entryY=0;entryDx=0;entryDy=0;" edge="1" parent="1" source="9FV7ENJVYhfaRuYf86Xj-37" target="9FV7ENJVYhfaRuYf86Xj-80">
          <mxGeometry relative="1" as="geometry">
            <mxPoint x="910" y="1890" as="targetPoint" />
          </mxGeometry>
        </mxCell>
        <mxCell id="9FV7ENJVYhfaRuYf86Xj-37" value="i &amp;lt; N ?" style="rhombus;whiteSpace=wrap;html=1;" vertex="1" parent="1">
          <mxGeometry x="345" y="1560" width="110" height="80" as="geometry" />
        </mxCell>
        <mxCell id="9FV7ENJVYhfaRuYf86Xj-40" style="edgeStyle=orthogonalEdgeStyle;rounded=0;orthogonalLoop=1;jettySize=auto;html=1;entryX=0.5;entryY=0;entryDx=0;entryDy=0;" edge="1" parent="1" source="9FV7ENJVYhfaRuYf86Xj-38" target="9FV7ENJVYhfaRuYf86Xj-37">
          <mxGeometry relative="1" as="geometry" />
        </mxCell>
        <mxCell id="9FV7ENJVYhfaRuYf86Xj-38" value="" style="ellipse;whiteSpace=wrap;html=1;aspect=fixed;" vertex="1" parent="1">
          <mxGeometry x="395" y="1510" width="10" height="10" as="geometry" />
        </mxCell>
        <mxCell id="9FV7ENJVYhfaRuYf86Xj-44" value="" style="edgeStyle=orthogonalEdgeStyle;rounded=0;orthogonalLoop=1;jettySize=auto;html=1;" edge="1" parent="1" source="9FV7ENJVYhfaRuYf86Xj-41" target="9FV7ENJVYhfaRuYf86Xj-43">
          <mxGeometry relative="1" as="geometry" />
        </mxCell>
        <mxCell id="9FV7ENJVYhfaRuYf86Xj-41" value="num = Array[ i ]" style="rounded=0;whiteSpace=wrap;html=1;" vertex="1" parent="1">
          <mxGeometry x="340" y="1680" width="120" height="40" as="geometry" />
        </mxCell>
        <mxCell id="9FV7ENJVYhfaRuYf86Xj-46" value="" style="edgeStyle=orthogonalEdgeStyle;rounded=0;orthogonalLoop=1;jettySize=auto;html=1;" edge="1" parent="1" source="9FV7ENJVYhfaRuYf86Xj-43" target="9FV7ENJVYhfaRuYf86Xj-45">
          <mxGeometry relative="1" as="geometry" />
        </mxCell>
        <mxCell id="9FV7ENJVYhfaRuYf86Xj-43" value="prime = 1" style="rounded=0;whiteSpace=wrap;html=1;" vertex="1" parent="1">
          <mxGeometry x="340" y="1760" width="120" height="40" as="geometry" />
        </mxCell>
        <mxCell id="9FV7ENJVYhfaRuYf86Xj-48" value="" style="edgeStyle=orthogonalEdgeStyle;rounded=0;orthogonalLoop=1;jettySize=auto;html=1;" edge="1" parent="1" source="9FV7ENJVYhfaRuYf86Xj-45" target="9FV7ENJVYhfaRuYf86Xj-47">
          <mxGeometry relative="1" as="geometry" />
        </mxCell>
        <mxCell id="9FV7ENJVYhfaRuYf86Xj-50" style="edgeStyle=orthogonalEdgeStyle;rounded=0;orthogonalLoop=1;jettySize=auto;html=1;entryX=0;entryY=0.5;entryDx=0;entryDy=0;" edge="1" parent="1" source="9FV7ENJVYhfaRuYf86Xj-45" target="9FV7ENJVYhfaRuYf86Xj-51">
          <mxGeometry relative="1" as="geometry">
            <mxPoint x="520" y="1880" as="targetPoint" />
          </mxGeometry>
        </mxCell>
        <mxCell id="9FV7ENJVYhfaRuYf86Xj-45" value="num &amp;lt; 2 ?" style="rhombus;whiteSpace=wrap;html=1;" vertex="1" parent="1">
          <mxGeometry x="345" y="1840" width="110" height="80" as="geometry" />
        </mxCell>
        <mxCell id="9FV7ENJVYhfaRuYf86Xj-77" value="" style="edgeStyle=orthogonalEdgeStyle;rounded=0;orthogonalLoop=1;jettySize=auto;html=1;" edge="1" parent="1" source="9FV7ENJVYhfaRuYf86Xj-47" target="9FV7ENJVYhfaRuYf86Xj-76">
          <mxGeometry relative="1" as="geometry" />
        </mxCell>
        <mxCell id="9FV7ENJVYhfaRuYf86Xj-47" value="prime = 0" style="rounded=0;whiteSpace=wrap;html=1;" vertex="1" parent="1">
          <mxGeometry x="340" y="1960" width="120" height="40" as="geometry" />
        </mxCell>
        <mxCell id="9FV7ENJVYhfaRuYf86Xj-55" value="" style="edgeStyle=orthogonalEdgeStyle;rounded=0;orthogonalLoop=1;jettySize=auto;html=1;" edge="1" parent="1" source="9FV7ENJVYhfaRuYf86Xj-51" target="9FV7ENJVYhfaRuYf86Xj-54">
          <mxGeometry relative="1" as="geometry" />
        </mxCell>
        <mxCell id="9FV7ENJVYhfaRuYf86Xj-51" value="j = 2" style="rounded=0;whiteSpace=wrap;html=1;" vertex="1" parent="1">
          <mxGeometry x="620" y="1860" width="120" height="40" as="geometry" />
        </mxCell>
        <mxCell id="9FV7ENJVYhfaRuYf86Xj-65" style="edgeStyle=orthogonalEdgeStyle;rounded=0;orthogonalLoop=1;jettySize=auto;html=1;entryX=0.5;entryY=0;entryDx=0;entryDy=0;" edge="1" parent="1" source="9FV7ENJVYhfaRuYf86Xj-54" target="9FV7ENJVYhfaRuYf86Xj-60">
          <mxGeometry relative="1" as="geometry" />
        </mxCell>
        <mxCell id="9FV7ENJVYhfaRuYf86Xj-81" style="edgeStyle=orthogonalEdgeStyle;rounded=0;orthogonalLoop=1;jettySize=auto;html=1;entryX=0;entryY=0.5;entryDx=0;entryDy=0;" edge="1" parent="1" source="9FV7ENJVYhfaRuYf86Xj-54" target="9FV7ENJVYhfaRuYf86Xj-80">
          <mxGeometry relative="1" as="geometry" />
        </mxCell>
        <mxCell id="9FV7ENJVYhfaRuYf86Xj-54" value="j * j &amp;lt;= num" style="rhombus;whiteSpace=wrap;html=1;" vertex="1" parent="1">
          <mxGeometry x="625" y="1960" width="110" height="80" as="geometry" />
        </mxCell>
        <mxCell id="9FV7ENJVYhfaRuYf86Xj-58" value="" style="edgeStyle=orthogonalEdgeStyle;rounded=0;orthogonalLoop=1;jettySize=auto;html=1;" edge="1" parent="1" source="9FV7ENJVYhfaRuYf86Xj-56" target="9FV7ENJVYhfaRuYf86Xj-57">
          <mxGeometry relative="1" as="geometry" />
        </mxCell>
        <mxCell id="9FV7ENJVYhfaRuYf86Xj-62" style="edgeStyle=orthogonalEdgeStyle;rounded=0;orthogonalLoop=1;jettySize=auto;html=1;entryX=1;entryY=0.5;entryDx=0;entryDy=0;" edge="1" parent="1" source="9FV7ENJVYhfaRuYf86Xj-56" target="9FV7ENJVYhfaRuYf86Xj-61">
          <mxGeometry relative="1" as="geometry">
            <Array as="points">
              <mxPoint x="800" y="2160" />
              <mxPoint x="800" y="2315" />
            </Array>
          </mxGeometry>
        </mxCell>
        <mxCell id="9FV7ENJVYhfaRuYf86Xj-56" value="num mod j" style="rhombus;whiteSpace=wrap;html=1;" vertex="1" parent="1">
          <mxGeometry x="625" y="2120" width="110" height="80" as="geometry" />
        </mxCell>
        <mxCell id="9FV7ENJVYhfaRuYf86Xj-63" style="edgeStyle=orthogonalEdgeStyle;rounded=0;orthogonalLoop=1;jettySize=auto;html=1;entryX=0.5;entryY=0;entryDx=0;entryDy=0;" edge="1" parent="1" source="9FV7ENJVYhfaRuYf86Xj-57" target="9FV7ENJVYhfaRuYf86Xj-61">
          <mxGeometry relative="1" as="geometry" />
        </mxCell>
        <mxCell id="9FV7ENJVYhfaRuYf86Xj-57" value="prime = 0" style="rounded=0;whiteSpace=wrap;html=1;" vertex="1" parent="1">
          <mxGeometry x="620" y="2240" width="120" height="40" as="geometry" />
        </mxCell>
        <mxCell id="9FV7ENJVYhfaRuYf86Xj-67" style="edgeStyle=orthogonalEdgeStyle;rounded=0;orthogonalLoop=1;jettySize=auto;html=1;entryX=0;entryY=0.5;entryDx=0;entryDy=0;" edge="1" parent="1" source="9FV7ENJVYhfaRuYf86Xj-59" target="9FV7ENJVYhfaRuYf86Xj-60">
          <mxGeometry relative="1" as="geometry">
            <Array as="points">
              <mxPoint x="680" y="2440" />
              <mxPoint x="560" y="2440" />
              <mxPoint x="560" y="2075" />
            </Array>
          </mxGeometry>
        </mxCell>
        <mxCell id="9FV7ENJVYhfaRuYf86Xj-59" value="j + 1" style="rounded=0;whiteSpace=wrap;html=1;" vertex="1" parent="1">
          <mxGeometry x="620" y="2360" width="120" height="40" as="geometry" />
        </mxCell>
        <mxCell id="9FV7ENJVYhfaRuYf86Xj-66" style="edgeStyle=orthogonalEdgeStyle;rounded=0;orthogonalLoop=1;jettySize=auto;html=1;entryX=0.5;entryY=0;entryDx=0;entryDy=0;" edge="1" parent="1" source="9FV7ENJVYhfaRuYf86Xj-60" target="9FV7ENJVYhfaRuYf86Xj-56">
          <mxGeometry relative="1" as="geometry" />
        </mxCell>
        <mxCell id="9FV7ENJVYhfaRuYf86Xj-60" value="" style="ellipse;whiteSpace=wrap;html=1;aspect=fixed;" vertex="1" parent="1">
          <mxGeometry x="675" y="2070" width="10" height="10" as="geometry" />
        </mxCell>
        <mxCell id="9FV7ENJVYhfaRuYf86Xj-64" style="edgeStyle=orthogonalEdgeStyle;rounded=0;orthogonalLoop=1;jettySize=auto;html=1;entryX=0.5;entryY=0;entryDx=0;entryDy=0;" edge="1" parent="1" source="9FV7ENJVYhfaRuYf86Xj-61" target="9FV7ENJVYhfaRuYf86Xj-59">
          <mxGeometry relative="1" as="geometry" />
        </mxCell>
        <mxCell id="9FV7ENJVYhfaRuYf86Xj-61" value="" style="ellipse;whiteSpace=wrap;html=1;aspect=fixed;" vertex="1" parent="1">
          <mxGeometry x="675" y="2310" width="10" height="10" as="geometry" />
        </mxCell>
        <mxCell id="9FV7ENJVYhfaRuYf86Xj-73" value="" style="edgeStyle=orthogonalEdgeStyle;rounded=0;orthogonalLoop=1;jettySize=auto;html=1;" edge="1" parent="1" source="9FV7ENJVYhfaRuYf86Xj-69" target="9FV7ENJVYhfaRuYf86Xj-70">
          <mxGeometry relative="1" as="geometry" />
        </mxCell>
        <mxCell id="9FV7ENJVYhfaRuYf86Xj-84" style="edgeStyle=orthogonalEdgeStyle;rounded=0;orthogonalLoop=1;jettySize=auto;html=1;entryX=0.5;entryY=0;entryDx=0;entryDy=0;" edge="1" parent="1" source="9FV7ENJVYhfaRuYf86Xj-69" target="9FV7ENJVYhfaRuYf86Xj-71">
          <mxGeometry relative="1" as="geometry">
            <mxPoint x="580" y="2630" as="targetPoint" />
          </mxGeometry>
        </mxCell>
        <mxCell id="9FV7ENJVYhfaRuYf86Xj-69" value="prime == 0 ?" style="rhombus;whiteSpace=wrap;html=1;" vertex="1" parent="1">
          <mxGeometry x="345" y="2520" width="110" height="80" as="geometry" />
        </mxCell>
        <mxCell id="9FV7ENJVYhfaRuYf86Xj-86" style="edgeStyle=orthogonalEdgeStyle;rounded=0;orthogonalLoop=1;jettySize=auto;html=1;entryX=0.5;entryY=0;entryDx=0;entryDy=0;" edge="1" parent="1" source="9FV7ENJVYhfaRuYf86Xj-70" target="9FV7ENJVYhfaRuYf86Xj-85">
          <mxGeometry relative="1" as="geometry" />
        </mxCell>
        <mxCell id="9FV7ENJVYhfaRuYf86Xj-70" value="Show &quot;num&quot;" style="shape=parallelogram;perimeter=parallelogramPerimeter;whiteSpace=wrap;html=1;fixedSize=1;" vertex="1" parent="1">
          <mxGeometry x="320" y="2640" width="160" height="40" as="geometry" />
        </mxCell>
        <mxCell id="9FV7ENJVYhfaRuYf86Xj-88" style="edgeStyle=orthogonalEdgeStyle;rounded=0;orthogonalLoop=1;jettySize=auto;html=1;entryX=1;entryY=0.5;entryDx=0;entryDy=0;" edge="1" parent="1" source="9FV7ENJVYhfaRuYf86Xj-71" target="9FV7ENJVYhfaRuYf86Xj-85">
          <mxGeometry relative="1" as="geometry">
            <Array as="points">
              <mxPoint x="600" y="2725" />
            </Array>
          </mxGeometry>
        </mxCell>
        <mxCell id="9FV7ENJVYhfaRuYf86Xj-71" value="Show &quot; # &quot;" style="shape=parallelogram;perimeter=parallelogramPerimeter;whiteSpace=wrap;html=1;fixedSize=1;" vertex="1" parent="1">
          <mxGeometry x="520" y="2640" width="160" height="40" as="geometry" />
        </mxCell>
        <mxCell id="9FV7ENJVYhfaRuYf86Xj-72" value="END" style="ellipse;whiteSpace=wrap;html=1;" vertex="1" parent="1">
          <mxGeometry x="340" y="2760" width="120" height="40" as="geometry" />
        </mxCell>
        <mxCell id="9FV7ENJVYhfaRuYf86Xj-79" style="edgeStyle=orthogonalEdgeStyle;rounded=0;orthogonalLoop=1;jettySize=auto;html=1;entryX=0;entryY=0.5;entryDx=0;entryDy=0;" edge="1" parent="1" source="9FV7ENJVYhfaRuYf86Xj-76" target="9FV7ENJVYhfaRuYf86Xj-38">
          <mxGeometry relative="1" as="geometry">
            <Array as="points">
              <mxPoint x="400" y="2120" />
              <mxPoint x="280" y="2120" />
              <mxPoint x="280" y="1515" />
            </Array>
          </mxGeometry>
        </mxCell>
        <mxCell id="9FV7ENJVYhfaRuYf86Xj-76" value="i + 1" style="rounded=0;whiteSpace=wrap;html=1;" vertex="1" parent="1">
          <mxGeometry x="340" y="2040" width="120" height="40" as="geometry" />
        </mxCell>
        <mxCell id="9FV7ENJVYhfaRuYf86Xj-89" style="edgeStyle=orthogonalEdgeStyle;rounded=0;orthogonalLoop=1;jettySize=auto;html=1;entryX=0.5;entryY=0;entryDx=0;entryDy=0;" edge="1" parent="1" source="9FV7ENJVYhfaRuYf86Xj-80" target="9FV7ENJVYhfaRuYf86Xj-69">
          <mxGeometry relative="1" as="geometry">
            <Array as="points">
              <mxPoint x="925" y="2480" />
              <mxPoint x="400" y="2480" />
            </Array>
          </mxGeometry>
        </mxCell>
        <mxCell id="9FV7ENJVYhfaRuYf86Xj-80" value="" style="ellipse;whiteSpace=wrap;html=1;aspect=fixed;" vertex="1" parent="1">
          <mxGeometry x="920" y="1995" width="10" height="10" as="geometry" />
        </mxCell>
        <mxCell id="9FV7ENJVYhfaRuYf86Xj-87" style="edgeStyle=orthogonalEdgeStyle;rounded=0;orthogonalLoop=1;jettySize=auto;html=1;entryX=0.5;entryY=0;entryDx=0;entryDy=0;" edge="1" parent="1" source="9FV7ENJVYhfaRuYf86Xj-85" target="9FV7ENJVYhfaRuYf86Xj-72">
          <mxGeometry relative="1" as="geometry" />
        </mxCell>
        <mxCell id="9FV7ENJVYhfaRuYf86Xj-85" value="" style="ellipse;whiteSpace=wrap;html=1;aspect=fixed;" vertex="1" parent="1">
          <mxGeometry x="395" y="2720" width="10" height="10" as="geometry" />
        </mxCell>
        <mxCell id="9FV7ENJVYhfaRuYf86Xj-90" value="TRUE" style="text;html=1;align=center;verticalAlign=middle;whiteSpace=wrap;rounded=0;" vertex="1" parent="1">
          <mxGeometry x="400" y="520" width="60" height="30" as="geometry" />
        </mxCell>
        <mxCell id="9FV7ENJVYhfaRuYf86Xj-91" value="FALSE" style="text;html=1;align=center;verticalAlign=middle;whiteSpace=wrap;rounded=0;" vertex="1" parent="1">
          <mxGeometry x="455" y="450" width="60" height="30" as="geometry" />
        </mxCell>
        <mxCell id="9FV7ENJVYhfaRuYf86Xj-92" value="TRUE" style="text;html=1;align=center;verticalAlign=middle;whiteSpace=wrap;rounded=0;" vertex="1" parent="1">
          <mxGeometry x="400" y="1080" width="60" height="30" as="geometry" />
        </mxCell>
        <mxCell id="9FV7ENJVYhfaRuYf86Xj-93" value="FALSE" style="text;html=1;align=center;verticalAlign=middle;whiteSpace=wrap;rounded=0;" vertex="1" parent="1">
          <mxGeometry x="455" y="1010" width="60" height="30" as="geometry" />
        </mxCell>
        <mxCell id="9FV7ENJVYhfaRuYf86Xj-94" value="TRUE" style="text;html=1;align=center;verticalAlign=middle;whiteSpace=wrap;rounded=0;" vertex="1" parent="1">
          <mxGeometry x="400" y="1640" width="60" height="30" as="geometry" />
        </mxCell>
        <mxCell id="9FV7ENJVYhfaRuYf86Xj-95" value="FALSE" style="text;html=1;align=center;verticalAlign=middle;whiteSpace=wrap;rounded=0;" vertex="1" parent="1">
          <mxGeometry x="455" y="1570" width="60" height="30" as="geometry" />
        </mxCell>
        <mxCell id="9FV7ENJVYhfaRuYf86Xj-96" value="TRUE" style="text;html=1;align=center;verticalAlign=middle;whiteSpace=wrap;rounded=0;" vertex="1" parent="1">
          <mxGeometry x="400" y="1920" width="60" height="30" as="geometry" />
        </mxCell>
        <mxCell id="9FV7ENJVYhfaRuYf86Xj-97" value="FALSE" style="text;html=1;align=center;verticalAlign=middle;whiteSpace=wrap;rounded=0;" vertex="1" parent="1">
          <mxGeometry x="455" y="1850" width="60" height="30" as="geometry" />
        </mxCell>
        <mxCell id="9FV7ENJVYhfaRuYf86Xj-98" value="TRUE" style="text;html=1;align=center;verticalAlign=middle;whiteSpace=wrap;rounded=0;" vertex="1" parent="1">
          <mxGeometry x="680" y="2040" width="60" height="30" as="geometry" />
        </mxCell>
        <mxCell id="9FV7ENJVYhfaRuYf86Xj-99" value="FALSE" style="text;html=1;align=center;verticalAlign=middle;whiteSpace=wrap;rounded=0;" vertex="1" parent="1">
          <mxGeometry x="735" y="1970" width="60" height="30" as="geometry" />
        </mxCell>
        <mxCell id="9FV7ENJVYhfaRuYf86Xj-100" value="TRUE" style="text;html=1;align=center;verticalAlign=middle;whiteSpace=wrap;rounded=0;" vertex="1" parent="1">
          <mxGeometry x="680" y="2200" width="60" height="30" as="geometry" />
        </mxCell>
        <mxCell id="9FV7ENJVYhfaRuYf86Xj-101" value="FALSE" style="text;html=1;align=center;verticalAlign=middle;whiteSpace=wrap;rounded=0;" vertex="1" parent="1">
          <mxGeometry x="735" y="2130" width="60" height="30" as="geometry" />
        </mxCell>
        <mxCell id="9FV7ENJVYhfaRuYf86Xj-102" value="TRUE" style="text;html=1;align=center;verticalAlign=middle;whiteSpace=wrap;rounded=0;" vertex="1" parent="1">
          <mxGeometry x="400" y="2600" width="60" height="30" as="geometry" />
        </mxCell>
        <mxCell id="9FV7ENJVYhfaRuYf86Xj-103" value="FALSE" style="text;html=1;align=center;verticalAlign=middle;whiteSpace=wrap;rounded=0;" vertex="1" parent="1">
          <mxGeometry x="455" y="2530" width="60" height="30" as="geometry" />
        </mxCell>
      </root>
    </mxGraphModel>
  </diagram>
</mxfile>
